<?xml version="1.0" encoding="UTF-8" standalone="no"?>
<svg xmlns="http://www.w3.org/2000/svg" version="1.1" viewBox="0 0 80 80" height="80" width="80">
  <g id="logo-kc">
    <circle id="kc-logo-circulo" r="40" cy="40" cx="40" fill="#000000" />
    <path id="kc-logo-c" d="m40,8c-17.67,0,-32,14.33,-32,32c0,17.67,14.33,32,32,32c12.56,-0.02,23.96,-7.37,29.11,-18.82c0.6,-1.33,0.11,-2.53,-1.59,-3.52l-7.5,-4.58c-0.76,-0.46,-1.74,-0.18,-2.19,0.59l-4,6.93c-0.44,0.77,-0.18,1.74,0.59,2.19l2.96,1.71c-3.19,3.36,-7.28,5.72,-11.78,6.8l0,-3.42c0,-0.89,-0.71,-1.6,-1.6,-1.6l-8,0c-0.89,0,-1.6,0.71,-1.6,1.6l0,3.42c-4.51,-1.08,-8.61,-3.44,-11.8,-6.8l2.98,-1.72c0.77,-0.44,1.03,-1.42,0.59,-2.19l-4,-6.93c-0.44,-0.77,-1.42,-1.03,-2.19,-0.59l-2.97,1.72c-0.66,-2.21,-1,-4.5,-1,-6.81c0,-2.31,0.34,-4.6,1,-6.81l2.98,1.72c0.77,0.44,1.74,0.18,2.19,-0.59l4,-6.93c0.44,-0.77,0.18,-1.74,-0.59,-2.19l-2.98,-1.68c3.19,-3.36,7.28,-5.72,11.78,-6.81l0,3.42c0,0.89,0.71,1.6,1.6,1.6l8,0c0.89,0,1.6,-0.71,1.6,-1.6l0,-3.42c4.5,1.08,8.6,3.44,11.79,6.8l-2.97,1.71c-0.77,0.44,-1.03,1.42,-0.59,2.19l4,6.93c0.44,0.77,1.42,1.03,2.19,0.59l6.93,-4c2.34,-1.43,2.72,-2.87,2.02,-4.42c-5.12,-11.32,-16.53,-18.49,-28.96,-18.49z" fill="#ffffff" />
  </g>
</svg>
