<?xml version="1.0" encoding="UTF-8" standalone="no"?>
<svg
   xmlns="http://www.w3.org/2000/svg"
   version="1.1"
   width="300"
   height="64"
   viewBox="0 0 300 64">
  <g
     style="fill:#ffffff"
     transform="translate(0,-988.36216)"
     opacity="1">
    <path
       d="m 16.539868,1048.3637 c -8.3689361,-1.8338 -14.7958939,-7.8631 -16.12693845,-15.1293 -0.9805408,-5.3528 -0.25895477,-9.2522 2.69125575,-14.5434 1.0051943,-1.8028 2.1620936,-4.1384 2.570883,-5.1901 0.9381035,-2.4135 2.494961,-4.0432 5.4623607,-5.7179 3.718791,-2.0987 13.045463,-5.574 16.360494,-6.0962 3.171302,-0.4995 8.295787,-0.3062 8.883409,0.3352 0.18758,0.2047 0.437747,1.2931 0.555937,2.4187 l 0.214882,2.0465 -2.22333,0.6362 c -1.222836,0.3499 -4.566738,1.0506 -7.430898,1.557 -7.329108,1.296 -10.391268,2.1014 -12.494859,3.2863 -5.0241355,2.8299 -6.2271,8.3964 -3.133781,14.5007 0.608365,1.2006 2.526532,3.5984 4.262594,5.3285 3.52106,3.5089 4.588042,3.9486 12.884918,5.3101 7.801139,1.2802 9.99499,1.3222 12.131341,0.2323 1.045392,-0.5333 2.502707,-1.534 3.238483,-2.2237 1.552349,-1.4552 1.69754,-1.4872 2.608669,-0.5761 0.704344,0.7044 0.938867,3.909 0.349826,4.7802 -0.175356,0.2593 -1.295247,1.0329 -2.488647,1.719 -1.193399,0.6861 -3.068209,1.9504 -4.166246,2.8095 -2.24153,1.754 -7.973747,4.0437 -11.861618,4.7381 -3.423643,0.6116 -8.940493,0.5121 -12.288735,-0.2216 z m -7.331954,-7.6749 c -0.6810929,-0.7772 -2.0194887,-2.7266 -2.9742087,-4.3321 -1.7549098,-2.951 -2.4140051,-3.5599 -2.353784,-2.1747 0.093754,2.1566 2.7619788,6.1372 4.9575657,7.3959 1.518504,0.8706 1.645464,0.5658 0.370427,-0.8891 z m 20.876406,0.6326 c 1.42163,-0.3958 1.017731,-0.8893 -0.94887,-1.1593 -5.844792,-0.8027 -12.391584,-3.4642 -15.445356,-6.279 -2.203958,-2.0316 -4.008461,-5.6865 -4.6551752,-9.4289 -0.6839614,-3.9578 -0.8355189,-4.4845 -1.2906078,-4.4845 -0.5694775,0 -0.5431402,5.2808 0.042138,8.4468 0.67109,3.6303 2.3337392,7.106 4.4353472,9.2721 2.128053,2.1932 3.608737,3.0536 6.596863,3.833 2.260482,0.5896 8.849351,0.4725 11.265669,-0.2002 z" />
    <path
       d="m 79.441971,1050.6857 c -0.06077,-0.2386 -0.08527,-0.5867 -0.05445,-0.7733 0.03081,-0.1867 -0.403769,-0.8353 -0.965751,-1.4414 -0.561983,-0.6061 -1.686952,-2.1781 -2.499935,-3.4935 -1.649595,-2.6689 -11.489347,-13.4853 -12.583595,-13.8326 -0.385646,-0.1224 -1.219555,-0.8044 -1.853125,-1.5154 -0.633569,-0.7111 -1.589825,-1.2998 -2.125011,-1.3083 -0.53519,-0.01 -1.461281,-0.2944 -2.057981,-0.6355 -0.5967,-0.3411 -1.408338,-0.6271 -1.80364,-0.6356 -0.911701,-0.019 -3.635409,3.7387 -4.205229,5.8024 -0.836912,3.031 -2.0344,4.9212 -4.042753,6.3812 -1.112813,0.809 -2.174982,1.4365 -2.36038,1.3945 -0.47953,-0.1087 -1.855641,-3.6366 -1.884552,-4.8313 -0.01332,-0.5511 0.166065,-0.8844 0.398665,-0.7407 0.232604,0.1438 0.790794,-0.577 1.240424,-1.6017 2.164923,-4.9339 2.241227,-5.5156 0.940447,-7.1693 -1.874649,-2.3832 -0.242008,-5.8568 3.01113,-6.4064 1.87576,-0.3169 2.161925,-0.7921 4.18374,-6.9479 2.020964,-6.1532 4.583588,-13.04593 5.201014,-13.98928 1.624253,-2.48166 4.939348,-3.01997 6.050269,-0.98246 1.650017,3.02624 2.752258,6.00544 5.37871,14.53774 2.684234,8.7201 2.722579,8.8146 3.681817,9.072 0.504865,0.1355 1.357325,0.2491 1.894355,0.2523 0.779429,0 0.976418,0.2519 0.976418,1.2249 0,0.6704 -0.286715,1.598 -0.637145,2.0613 -1.153636,1.5253 -0.780579,3.5174 2.10777,11.2557 0.623237,1.6697 1.133157,3.399 1.133157,3.843 0,0.4439 0.488209,1.3873 1.084909,2.0965 0.618277,0.7348 1.084909,1.8375 1.084909,2.5638 0,0.701 0.234731,1.6504 0.521629,2.1098 0.412695,0.6608 0.396456,1.0691 -0.07776,1.9552 -0.400123,0.7476 -0.704714,0.9495 -0.916193,0.6074 -0.200382,-0.3243 -0.389295,-0.128 -0.514082,0.5341 -0.108508,0.5758 -0.247007,0.8515 -0.307775,0.6128 z m -14.609885,-30.9242 c 0.112097,-0.1813 -0.06223,-0.9625 -0.387403,-1.7358 -0.516118,-1.2275 -0.796237,-1.4061 -2.205351,-1.4061 -2.807775,0 -4.569251,2.7729 -2.007959,3.1609 2.153627,0.3262 4.393075,0.317 4.600713,-0.019 z" />
    <path
       d="m 87.500814,1050.4566 c -0.903716,-0.6608 -0.388849,-2.2256 1.107952,-3.3672 0.678598,-0.5176 1.376498,-0.9411 1.550895,-0.9411 0.174397,0 2.126774,-0.9154 4.338608,-2.0342 2.211843,-1.1187 4.154364,-2.0341 4.316714,-2.0341 0.501836,0 7.527447,-3.4625 7.658197,-3.7743 0.0678,-0.1617 0.48388,-0.2992 0.92461,-0.3057 1.1507,-0.017 2.00153,-0.7819 2.68264,-2.412 0.55135,-1.3196 0.54748,-1.5795 -0.0531,-3.5629 -0.98846,-3.2647 -1.50035,-3.4622 -9.77987,-3.7738 -1.322187,-0.05 -2.986477,-0.2723 -3.698424,-0.4945 -1.477933,-0.4612 -1.930019,-0.5029 -4.992869,-0.4604 -2.414122,0.034 -4.619938,0.881 -6.267832,2.4082 -0.540207,0.5007 -1.209396,0.9103 -1.487085,0.9103 -0.277689,0 -0.560364,0.1641 -0.628171,0.3648 -0.0678,0.2006 -0.88841,0.4694 -1.82358,0.5973 -1.640166,0.2243 -1.728447,0.1869 -2.496432,-1.0557 -0.802677,-1.2987 -1.100358,-4.1128 -0.475889,-4.4988 0.577106,-0.3566 -0.02252,-2.2269 -1.077007,-3.3592 -0.568292,-0.6102 -1.378381,-1.4829 -1.800198,-1.9393 -0.596062,-0.6449 -0.820651,-1.5286 -1.007989,-3.9658 -0.279455,-3.6355 0.433807,-6.6196 2.048725,-8.5711 0.528802,-0.639 1.211106,-1.4757 1.516225,-1.8593 1.107341,-1.3921 4.307094,-3.7139 6.658196,-4.8312 2.333652,-1.1091 4.875147,-1.73134 8.690247,-2.12764 1.017068,-0.10565 2.431711,-0.29737 3.143659,-0.42605 5.667044,-1.02426 16.413114,-0.0839 17.773554,1.55529 0.2416,0.2912 0.64275,0.5293 0.89143,0.5293 0.8116,0 1.78943,1.3983 1.47755,2.1129 -0.15867,0.3635 -0.25795,0.7982 -0.22061,0.9658 0.0373,0.1677 -0.11388,0.1926 -0.33603,0.055 -0.22293,-0.1378 -0.4841,0.057 -0.58291,0.4349 -0.22371,0.8555 -1.77087,1.6089 -3.30374,1.6089 -1.73377,0 -3.53205,1.3922 -4.13141,3.1984 -0.43152,1.3004 -0.69813,1.5696 -1.75035,1.767 -0.76873,0.1442 -1.85297,0.01 -2.84803,-0.3574 -3.82386,-1.4048 -7.663991,-1.7096 -8.981813,-0.7129 -0.394851,0.2987 -0.933842,0.543 -1.197757,0.543 -0.860685,0 -5.296253,3.9112 -5.296253,4.6702 0,0.2792 -0.139714,0.5076 -0.310475,0.5076 -1.023737,0 -1.584991,4.4862 -0.706588,5.6478 0.650707,0.8606 2.58589,1.102 5.030172,0.6276 1.149106,-0.2231 2.422142,-0.4682 2.82897,-0.5447 0.406828,-0.077 1.488617,-0.3286 2.403972,-0.5602 3.783182,-0.9571 9.672252,-0.058 10.951112,1.671 0.22584,0.3055 0.59445,0.5554 0.81914,0.5554 0.22468,0 0.58665,0.3328 0.80438,0.7396 0.21773,0.4069 0.59913,0.7397 0.84757,0.7397 0.24843,0 0.67108,0.7074 0.93922,1.5719 0.26813,0.8645 0.78559,1.9046 1.14991,2.3115 0.36432,0.4068 0.7651,1.2871 0.89063,1.9561 0.12552,0.6691 0.51364,1.5948 0.86246,2.0573 0.53052,0.7033 0.77078,0.7766 1.46909,0.4478 0.45916,-0.2161 1.18583,-1.0171 1.61483,-1.7799 0.88992,-1.5824 2.08141,-1.8701 2.2969,-0.5547 0.075,0.4576 -0.25411,1.6325 -0.73131,2.6108 -0.75543,1.5487 -1.75917,2.6696 -5.0902,5.6846 -0.40908,0.3703 -1.22442,1.339 -1.81188,2.1526 -1.4478,2.0053 -4.34994,4.9929 -4.85002,4.9929 -0.22355,0 -0.74475,0.3151 -1.15822,0.7003 -0.41346,0.3852 -1.31859,0.9878 -2.0114,1.3391 -0.69281,0.3513 -1.52555,0.8711 -1.85052,1.1551 -0.331,0.2894 -1.71359,0.5896 -3.143654,0.6827 -1.404042,0.091 -3.384942,0.2545 -4.40201,0.3623 -4.615047,0.4892 -6.781406,0.5094 -7.383982,0.069 z m 18.434506,-5.7569 c 1.77502,-1.2213 2.48801,-2.5081 1.66982,-3.0138 -0.66789,-0.4127 -4.66446,1.7765 -5.64697,3.0933 -1.55339,2.0819 0.9071,2.0327 3.97715,-0.08 z m -23.663408,-31.3028 c 1.080835,-2.3609 3.131413,-4.6816 4.953339,-5.6059 0.754728,-0.3829 1.954733,-1.0088 2.666676,-1.3908 0.711948,-0.382 1.71052,-0.7388 2.219056,-0.7928 1.141151,-0.1213 3.661616,-0.8383 4.525546,-1.2873 0.353212,-0.1836 1.102142,-0.3364 1.664285,-0.3395 0.712486,-0 0.870388,-0.1018 0.521286,-0.323 -0.838795,-0.5315 -5.198224,-0.4664 -6.275691,0.094 -1.930057,1.0033 -4.123023,1.8535 -7.924731,3.0725 -0.355972,0.1141 -0.647222,0.3545 -0.647222,0.5342 0,0.1797 -0.265555,0.3267 -0.59013,0.3267 -0.642036,0 -2.637479,1.295 -3.398317,2.2055 -0.453284,0.5424 -1.160666,1.9996 -1.353151,2.7874 -0.0497,0.2034 -0.219958,0.8367 -0.378351,1.4074 -0.228408,0.8228 -0.111863,1.225 0.563346,1.9437 l 0.851332,0.9062 0.862403,-0.8102 c 0.474322,-0.4456 1.257466,-1.6731 1.740324,-2.7278 z" />
    <path
       d="m 129.55402,1050.1505 c -0.32515,-0.3918 -0.43533,-1.1811 -0.27605,-1.9775 0.24105,-1.2052 0.12515,-1.3839 -1.27827,-1.9703 -1.42475,-0.5953 -1.5219,-0.7518 -1.26416,-2.0367 0.41113,-2.0495 2.36409,-4.685 4.56896,-6.1658 1.0665,-0.7163 4.2825,-2.1514 7.14666,-3.1891 2.86416,-1.0377 5.35601,-2.0257 5.53744,-2.1955 0.66311,-0.6206 -3.09515,-2.1922 -8.35081,-3.492 -2.96322,-0.7328 -5.49528,-1.4764 -5.62679,-1.6523 -0.56265,-0.7526 -4.86944,-1.8642 -6.23219,-1.6085 -1.34191,0.2517 -1.62415,0.063 -4.59342,-3.0623 -6.23499,-6.5639 -6.88141,-11.5327 -2.19474,-16.8705 4.57906,-5.2153 19.40667,-8.97548 30.72707,-7.79226 2.25378,0.23557 2.66744,0.40923 2.66744,1.11982 0,0.57823 0.54239,1.05404 1.73586,1.52284 0.95472,0.3751 1.73585,0.9383 1.73585,1.2518 0,0.6324 -1.48096,1.5785 -1.86691,1.1926 -0.13484,-0.1349 -0.47192,-0.1051 -0.74907,0.066 -0.27715,0.1713 -3.09067,0.3554 -6.25226,0.4091 -3.1616,0.054 -5.97473,0.2376 -6.25141,0.4086 -0.27667,0.171 -0.50304,0.8023 -0.50304,1.4029 0,0.9211 -0.18683,1.0797 -1.1934,1.0133 -2.56035,-0.1688 -3.25651,0.068 -4.70374,1.603 -1.73675,1.8414 -2.11312,2.9868 -1.78509,5.4325 0.32657,2.4347 0.77947,2.7802 2.83656,2.1639 0.9304,-0.2787 2.99493,-0.5068 4.58784,-0.5068 3.19836,0 5.36175,0.843 7.19057,2.8021 0.59083,0.6329 2.44603,1.9082 4.12266,2.8339 1.67663,0.9257 3.56795,2.2333 4.20294,2.9057 2.83526,3.0022 3.97711,7.5743 2.97498,11.9123 -0.5797,2.5093 -2.37541,6.0178 -3.08007,6.0178 -0.23807,0 -1.18573,0.768 -2.1059,1.7068 -1.02633,1.0471 -2.37666,1.8963 -3.49327,2.197 -1.00112,0.2696 -2.55178,0.8714 -3.4459,1.3375 -0.89413,0.466 -3.65949,1.3126 -6.14524,1.8813 -2.48576,0.5687 -5.0693,1.2492 -5.74121,1.5123 -1.63535,0.6403 -2.25722,0.6031 -2.90189,-0.1737 z m 13.61458,-8.5061 c 2.51374,-0.9031 5.04674,-3.4217 5.04674,-5.018 0,-0.557 -0.0921,-1.0126 -0.2046,-1.0126 -0.11254,0 -1.33306,0.5128 -2.71228,1.1396 -1.37921,0.6268 -3.97229,1.6726 -5.76239,2.3241 -3.05778,1.1129 -3.26311,1.2693 -3.39332,2.5841 l -0.13859,1.3995 2.46922,-0.3085 c 1.35807,-0.1697 3.47092,-0.6684 4.69522,-1.1082 z m 9.32312,-7.0246 c 0.051,-0.9047 -0.0452,-1.8681 -0.21381,-2.141 -0.4724,-0.7644 -0.95943,0.8716 -0.99432,3.34 -0.0272,1.9258 0.0311,2.0658 0.54241,1.3019 0.3151,-0.4708 0.61467,-1.5962 0.66572,-2.5009 z m -6.6943,-8.5029 c 0.38481,-0.6226 -2.10678,-1.4234 -3.92721,-1.2622 l -1.68319,0.1491 2.16982,0.7181 c 2.55569,0.8459 3.12176,0.9109 3.44058,0.395 z m -20.36517,-11.3321 c 0,-2.1448 -0.17421,-3.9501 -0.38713,-4.0118 -0.71082,-0.2059 -2.06028,2.1108 -2.30881,3.9638 -0.29582,2.2054 0.49756,3.9534 1.79286,3.95 0.84763,-0 0.90308,-0.2418 0.90308,-3.902 z m -4.76511,-2.2674 c 0.15329,-0.6108 0.84877,-1.6566 1.5455,-2.3241 0.69673,-0.6675 1.26678,-1.3724 1.26678,-1.5665 0,-0.7661 -0.87682,-0.2667 -2.78094,1.5839 -1.45505,1.4142 -1.99266,2.2728 -1.99266,3.1824 0,0.6852 0.12895,1.3747 0.28654,1.5323 0.37189,0.3719 1.31877,-0.9895 1.67478,-2.408 z" />
    <path
       d="m 209.98695,1043.0368 c -0.4834,-0.5581 -1.42999,-2.4531 -1.74985,-3.5031 -0.47171,-1.5484 -0.58581,-4.1674 -0.67503,-15.494 -0.0526,-6.6743 -0.19186,-10.842 -0.38173,-11.423 -0.16443,-0.5032 -0.3419,-1.6246 -0.3944,-2.4921 -0.0551,-0.9105 -0.26465,-1.7465 -0.49569,-1.9776 -0.22013,-0.2201 -1.12763,-0.5197 -2.01668,-0.6658 -1.79354,-0.2947 -7.30313,-0.3984 -7.71279,-0.1452 -0.14377,0.089 -1.25752,0.2016 -2.475,0.2505 -2.56653,0.1032 -3.09658,-0.1668 -3.69324,-1.8811 -0.44199,-1.27 -0.48008,-2.1519 -0.12184,-2.8213 0.14325,-0.2676 0.39195,-1.3097 0.55266,-2.3157 0.25326,-1.5853 0.42696,-1.9529 1.3034,-2.7579 1.28987,-1.1847 2.90051,-1.2969 3.99925,-0.2786 0.45728,0.4237 1.2859,0.7551 2.36274,0.9448 0.91214,0.1607 1.94689,0.4811 2.29941,0.7121 0.84306,0.5524 2.9606,0.8442 3.20905,0.4422 0.10334,-0.1672 0.47355,-0.3041 0.82268,-0.3041 0.61243,0 1.10655,-0.6388 0.83456,-1.0788 -0.2306,-0.3731 0.68266,-3.0091 1.23331,-3.55975 0.88385,-0.88385 1.99144,-0.6851 2.95389,0.53009 0.46133,0.58248 0.83878,1.25056 0.83878,1.48466 0,0.2341 0.21418,0.8421 0.47596,1.351 l 0.47596,0.9253 6.25545,0.017 c 7.54967,0.02 7.6432,0.024 8.83923,0.3157 0.52356,0.1279 1.28848,0.3083 1.69985,0.401 0.65264,0.147 0.74771,0.2977 0.74614,1.1831 -0.002,1.1066 -0.46579,1.9494 -1.84873,3.3595 -0.85595,0.8728 -1.00436,0.9203 -3.12772,1.0012 -1.22602,0.047 -2.41271,0.1503 -2.63709,0.2301 -0.52162,0.1856 -2.66884,0.3904 -4.75958,0.454 -0.89752,0.027 -1.78485,0.1486 -1.97183,0.2696 -0.18699,0.1211 -0.46236,0.1444 -0.61195,0.052 -0.14959,-0.092 -0.27197,-0.067 -0.27197,0.055 0,0.123 -0.27484,0.3444 -0.61074,0.492 -0.33592,0.1477 -0.78377,0.6318 -0.99522,1.0758 -0.43849,0.9207 -0.49222,3.7967 -0.0803,4.2981 0.28079,0.3418 0.61517,2.4077 0.72739,4.4939 0.0593,1.1016 0.72031,3.5755 1.29498,4.8462 0.14892,0.3293 0.17803,1.4327 0.0682,2.5838 -0.10546,1.105 -0.21937,3.295 -0.25313,4.8668 -0.0398,1.8551 -0.19603,3.0956 -0.44511,3.5357 -0.26038,0.46 -0.39229,1.6395 -0.41037,3.6697 -0.0146,1.6454 -0.12121,3.5753 -0.23677,4.2887 -0.33447,2.0646 -2.12887,3.5926 -3.01611,2.5683 z" />
    <path
       d="m 160.82269,1050.6903 c -1.52831,-2.5056 -1.53814,-2.8632 -0.60891,-22.1577 l 0.1632,-3.3887 -1.27573,-0.4447 c -2.21801,-0.7732 -2.21436,-2.8909 0.009,-5.441 1.01589,-1.165 1.24689,-1.909 1.48205,-4.7736 0.15321,-1.8664 0.36715,-3.8209 0.47542,-4.3433 0.26501,-1.2788 -0.25151,-1.5139 -3.64138,-1.6576 -4.26508,-0.1807 -6.97507,-0.6703 -7.69492,-1.3902 -0.56117,-0.5612 -0.50616,-0.7414 0.45756,-1.4995 1.18504,-0.9322 7.22471,-3.3431 11.0724,-4.4199 1.31274,-0.3674 4.04671,-1.1444 6.07549,-1.72664 2.02878,-0.58227 5.25096,-1.38851 7.1604,-1.79164 1.90944,-0.40312 5.61307,-1.22513 8.2303,-1.82666 2.61722,-0.60154 5.8394,-1.17385 7.1604,-1.2718 l 2.40181,-0.17809 -1.82978,0.88011 c -1.70076,0.81805 -1.79953,0.95967 -1.40074,2.00855 0.32406,0.85236 0.279,1.24805 -0.18419,1.6173 -0.33727,0.26886 -0.86368,1.50217 -1.1698,2.74067 l -0.55658,2.2518 -2.854,0.2895 c -1.5697,0.1593 -4.47266,0.6594 -6.45101,1.1114 -1.97835,0.4521 -4.22411,0.8246 -4.99058,0.8278 -2.65865,0.011 -3.23439,0.391 -3.96084,2.612 -0.71034,2.1718 -0.93523,6.2961 -0.36199,6.6386 0.35618,0.2129 6.84626,-0.6388 11.52572,-1.5125 3.41504,-0.6376 3.95358,-0.3126 3.59125,2.1674 -0.28452,1.9475 -0.90915,2.6001 -2.79261,2.9177 -0.87107,0.1469 -2.3649,0.6146 -3.31962,1.0393 -0.95472,0.4247 -3.20048,1.2212 -4.99058,1.7701 -1.7901,0.5489 -4.03586,1.5083 -4.99058,2.1321 l -1.73585,1.1341 -0.59851,6.2011 c -0.37042,3.8378 -0.44418,6.3554 -0.19356,6.606 0.25061,0.2506 1.05756,0.095 2.11738,-0.4093 1.72822,-0.8218 11.71778,-3.5288 13.02226,-3.5288 0.38734,0 1.18637,0.3792 1.77562,0.8427 1.84762,1.4534 5.33212,1.9823 8.88106,1.348 3.05445,-0.5458 3.09833,-0.5402 4.17762,0.5391 l 1.09074,1.0908 -0.81551,1.6699 -0.81551,1.6699 -5.20756,0.484 c -8.37156,0.7781 -12.05013,1.5734 -19.50078,4.216 -3.68894,1.3084 -5.86891,2.7457 -5.90053,3.8905 -0.0157,0.5703 -1.48255,2.4756 -1.90585,2.4756 -0.14425,0 -0.64941,-0.6347 -1.12257,-1.4104 z" />
    <path
       d="m 239.54165,1047.402 c -0.23384,-0.2818 -0.33751,-0.7407 -0.23038,-1.0199 0.10713,-0.2792 -0.0401,-1.3275 -0.32721,-2.3295 -0.28709,-1.002 -0.59753,-2.6744 -0.68987,-3.7164 -0.21452,-2.4209 -0.17505,-11.0188 0.054,-11.7521 0.0957,-0.3065 0.0168,-0.9708 -0.17533,-1.4762 -0.26557,-0.6986 -0.23961,-0.9611 0.10823,-1.0946 0.25169,-0.097 0.48902,-0.6723 0.52741,-1.2794 0.10647,-1.6838 0.23514,-2.4224 0.54132,-3.1076 0.16384,-0.3666 0.12849,-0.7772 -0.0853,-0.991 -0.21599,-0.216 -0.25275,-0.6636 -0.09,-1.0963 0.15126,-0.4022 0.29174,-1.5266 0.31218,-2.4985 0.0204,-0.972 0.19538,-2.1834 0.38875,-2.692 0.51328,-1.35 0.4889,-1.3892 -1.13489,-1.8235 -1.94616,-0.5205 -5.20761,-0.1737 -6.95271,0.7394 -0.89788,0.4698 -2.01914,0.7209 -3.21888,0.7209 -1.6317,0 -1.93533,-0.1175 -2.67026,-1.0334 -0.45607,-0.5683 -1.07879,-1.6825 -1.38383,-2.4759 -0.5313,-1.382 -0.52419,-1.4854 0.16927,-2.4592 0.46243,-0.6495 1.12954,-1.0834 1.84705,-1.2015 0.61775,-0.1017 2.36321,-0.415 3.87882,-0.6963 1.51561,-0.2813 3.96735,-0.6922 5.44832,-0.913 1.48096,-0.2208 3.15344,-0.5953 3.71661,-0.832 1.42553,-0.5994 2.57857,-2.4655 2.67563,-4.3303 0.0441,-0.84761 0.20369,-1.62271 0.3546,-1.72231 0.15091,-0.1 0.45718,-0.5283 0.68061,-0.9526 0.60716,-1.153 2.2379,-1.85293 4.05182,-1.73905 1.30993,0.0822 1.63693,0.24273 1.89954,0.93231 0.19875,0.52188 0.18846,1.20234 -0.0276,1.82194 -0.31333,0.8988 -0.25959,1.0215 0.5893,1.3458 1.23998,0.47371 4.87482,0.084 6.78982,-0.7279 0.3789,-0.1606 1.30894,-0.3746 2.06674,-0.4755 0.75781,-0.101 2.30786,-0.3863 3.44457,-0.6342 1.1367,-0.2478 2.26049,-0.429 2.49731,-0.4027 0.23681,0.026 0.82723,0.067 1.31204,0.091 0.49186,0.024 0.78737,0.1954 0.66858,0.3876 -0.11709,0.1894 0.0288,0.3444 0.32413,0.3444 0.73504,0 0.69018,0.1916 -0.49636,2.11991 -0.56834,0.9237 -1.03337,1.8267 -1.03337,2.0067 0,0.5432 -1.05877,0.9368 -4.13347,1.5363 -1.61034,0.314 -3.23789,0.7022 -3.6168,0.8625 -2.43725,1.0315 -5.3518,2.5634 -5.96638,3.1359 -0.39694,0.3698 -0.9398,0.6724 -1.20635,0.6724 -0.26655,0 -0.87875,0.31 -1.36044,0.6889 -0.4817,0.3789 -1.07096,0.6889 -1.30947,0.6889 -0.2385,0 -0.33272,0.101 -0.20936,0.2243 0.12335,0.1234 -0.0121,0.3971 -0.3009,0.6083 -0.36045,0.2636 -0.63459,1.4535 -0.87401,3.7937 -0.19185,1.8753 -0.49565,3.684 -0.67512,4.0193 -0.20553,0.3841 -0.20517,0.9282 8.7e-4,1.4704 0.2232,0.5871 0.20757,0.9006 -0.0491,0.9862 -0.20701,0.069 -0.43429,0.9706 -0.50506,2.0036 -0.0708,1.033 -0.19686,2.0669 -0.28022,2.2976 -0.0833,0.2308 -0.009,0.5075 0.1647,0.615 0.18923,0.117 0.19226,0.5216 0.008,1.0075 -0.16979,0.4466 -0.2239,1.1363 -0.12024,1.5327 0.10366,0.3964 0.073,0.9943 -0.0681,1.3287 -0.14113,0.3343 -0.30665,0.9954 -0.36781,1.4691 -0.0612,0.4736 -0.20178,1.5328 -0.31248,2.3538 -0.15695,1.1639 -0.10346,1.4338 0.24287,1.2255 0.35628,-0.2142 0.35994,-0.163 0.0185,0.259 -0.55676,0.6881 -0.47269,4.0516 0.12402,4.9623 0.33848,0.5166 0.39626,1.2388 0.21146,2.6433 -0.21468,1.6315 -0.48526,2.1784 -1.73719,3.5112 -1.55197,1.6523 -2.72575,2.0091 -3.50807,1.0665 z" />
    <path
       d="m 258.42612,1047.3147 c -2.40092,-1.6969 -2.73116,-2.966 -1.47193,-5.6567 0.45394,-0.9699 0.84476,-1.8429 0.86849,-1.9399 0.0237,-0.097 0.47434,-0.8477 1.00137,-1.6683 0.52703,-0.8206 0.95824,-1.5727 0.95824,-1.6714 0,-0.099 0.27122,-0.496 0.60271,-0.8832 0.33149,-0.3872 0.80105,-1.3757 1.04348,-2.1967 0.51848,-1.756 0.37014,-1.9218 -1.9989,-2.2338 -0.87295,-0.115 -1.82526,-0.2402 -2.11625,-0.2782 -0.37889,-0.049 -0.55948,-0.5983 -0.63623,-1.9337 -0.0996,-1.7329 -0.0212,-1.9446 1.10851,-2.9947 1.85786,-1.727 3.10069,-2.5678 4.58136,-3.0995 1.25686,-0.4513 4.0829,-2.7669 4.14376,-3.3952 0.0148,-0.1533 0.0766,-0.5168 0.13716,-0.8078 0.59643,-2.8641 0.83883,-4.6712 0.68155,-5.0811 -0.2381,-0.6204 -1.62881,-1.0072 -1.92111,-0.5342 -0.35964,0.5819 -3.8625,-1.3587 -3.8625,-2.1398 0,-1.2683 0.67304,-2.4734 1.38128,-2.4734 0.38134,0 0.77876,-0.1382 0.88316,-0.3072 0.10441,-0.1689 0.64004,-0.3971 1.19029,-0.5072 0.55024,-0.11 1.68021,-0.8598 2.51104,-1.6661 1.15786,-1.1236 1.47272,-1.6641 1.3484,-2.3144 -0.0892,-0.4666 -0.0255,-0.8484 0.14161,-0.8484 0.16709,0 0.3038,-0.2104 0.3038,-0.4676 0,-1.087 1.55894,-1.9371 3.87979,-2.1156 2.27031,-0.17461 5.82037,-1.0966 10.93395,-2.83973 5.52618,-1.88377 10.81547,-3.39482 11.88332,-3.39482 2.45292,0 2.837,0.77342 1.16688,2.34974 -0.58197,0.54928 -1.05812,1.17818 -1.05812,1.39754 0,0.21937 -0.23808,0.59643 -0.52907,0.83793 -0.29098,0.2415 -0.52906,0.82323 -0.52906,1.29273 0,0.46951 -0.62197,1.69561 -1.38216,2.72461 -1.40341,1.8997 -2.94669,2.6936 -5.31929,2.7362 -2.55574,0.046 -8.55516,1.7124 -11.55002,3.2083 -2.75837,1.3778 -3.52116,2.1873 -3.74122,3.9701 -0.22887,1.8542 -0.57814,2.9908 -1.22914,3.9999 -0.73249,1.1354 -0.61059,4.4085 0.21696,5.8258 0.61163,1.0475 0.76214,1.1079 2.74377,1.1006 2.52835,-0.01 5.7113,-0.3753 7.53593,-0.8666 0.73716,-0.1985 2.29744,-0.4354 3.46729,-0.5263 1.93416,-0.1504 2.14453,-0.098 2.32044,0.5743 0.1086,0.4154 -0.14526,1.4088 -0.57888,2.2653 -0.70278,1.3882 -0.91522,1.5434 -2.35951,1.724 -3.12045,0.3902 -9.55468,1.6426 -10.58124,2.0596 -0.29098,0.1182 -1.55959,0.3942 -2.81913,0.6134 -4.52774,0.7879 -5.73769,1.72 -6.22667,4.7972 -0.39046,2.4571 -0.26811,2.7412 1.69672,3.9407 2.98404,1.8216 3.92316,1.907 18.12447,1.6481 9.49009,-0.173 13.33876,-0.129 13.87606,0.1585 0.77799,0.4164 1.02782,1.9194 0.38508,2.3166 -0.19716,0.1218 -0.28515,0.3402 -0.19554,0.4851 0.30721,0.4971 -1.82497,1.438 -3.36903,1.4868 -0.84917,0.027 -4.21914,0.031 -7.48882,0.01 -3.26968,-0.022 -6.05678,0.029 -6.19357,0.1137 -0.1368,0.084 -1.42958,0.1755 -2.87284,0.2022 -1.44327,0.027 -3.6558,0.262 -4.91673,0.523 -1.26093,0.261 -3.64171,0.7286 -5.29062,1.0391 -2.99687,0.5644 -3.24132,0.6216 -4.2325,0.9892 -1.63156,0.605 -4.2745,1.3188 -4.82783,1.3038 -0.35153,-0.01 -1.17006,-0.3925 -1.81896,-0.8511 z" />
  </g>
</svg>
